<mxfile host="app.diagrams.net" modified="2020-07-16T07:42:47.778Z" agent="5.0 (Macintosh; Intel Mac OS X 10_15_5) AppleWebKit/537.36 (KHTML, like Gecko) Chrome/83.0.4103.116 Safari/537.36" etag="llgcOdD339uyWGKaB0D3" version="13.4.2" type="github">
  <diagram id="GdgfJNkPGug23kDMADjp" name="Page-1">
    <mxGraphModel dx="2066" dy="1105" grid="1" gridSize="10" guides="1" tooltips="1" connect="1" arrows="1" fold="1" page="1" pageScale="1" pageWidth="827" pageHeight="1169" math="0" shadow="0">
      <root>
        <mxCell id="0" />
        <mxCell id="1" parent="0" />
        <mxCell id="ajo63VWfuF_ObfIZbQrC-1" value="" style="rounded=0;whiteSpace=wrap;html=1;gradientColor=#b3b3b3;fillColor=#f5f5f5;strokeColor=#666666;" vertex="1" parent="1">
          <mxGeometry x="120" y="240" width="120" height="380" as="geometry" />
        </mxCell>
        <mxCell id="ajo63VWfuF_ObfIZbQrC-20" style="edgeStyle=orthogonalEdgeStyle;rounded=0;orthogonalLoop=1;jettySize=auto;html=1;entryX=0;entryY=0.5;entryDx=0;entryDy=0;dashed=1;fillColor=#f8cecc;strokeColor=#b85450;" edge="1" parent="1" source="ajo63VWfuF_ObfIZbQrC-2" target="ajo63VWfuF_ObfIZbQrC-8">
          <mxGeometry relative="1" as="geometry" />
        </mxCell>
        <mxCell id="ajo63VWfuF_ObfIZbQrC-2" value="" style="rounded=0;whiteSpace=wrap;html=1;fillColor=#f8cecc;strokeColor=#b85450;" vertex="1" parent="1">
          <mxGeometry x="120" y="280" width="120" height="20" as="geometry" />
        </mxCell>
        <mxCell id="ajo63VWfuF_ObfIZbQrC-21" style="edgeStyle=orthogonalEdgeStyle;rounded=0;orthogonalLoop=1;jettySize=auto;html=1;entryX=0;entryY=0.929;entryDx=0;entryDy=0;entryPerimeter=0;dashed=1;fillColor=#f8cecc;strokeColor=#b85450;" edge="1" parent="1" source="ajo63VWfuF_ObfIZbQrC-3" target="ajo63VWfuF_ObfIZbQrC-9">
          <mxGeometry relative="1" as="geometry" />
        </mxCell>
        <mxCell id="ajo63VWfuF_ObfIZbQrC-3" value="" style="rounded=0;whiteSpace=wrap;html=1;fillColor=#f8cecc;strokeColor=#b85450;" vertex="1" parent="1">
          <mxGeometry x="120" y="320" width="120" height="20" as="geometry" />
        </mxCell>
        <mxCell id="ajo63VWfuF_ObfIZbQrC-19" style="edgeStyle=orthogonalEdgeStyle;rounded=0;orthogonalLoop=1;jettySize=auto;html=1;dashed=1;fillColor=#f8cecc;strokeColor=#b85450;" edge="1" parent="1" source="ajo63VWfuF_ObfIZbQrC-4" target="ajo63VWfuF_ObfIZbQrC-10">
          <mxGeometry relative="1" as="geometry" />
        </mxCell>
        <mxCell id="ajo63VWfuF_ObfIZbQrC-4" value="" style="rounded=0;whiteSpace=wrap;html=1;fillColor=#f8cecc;strokeColor=#b85450;" vertex="1" parent="1">
          <mxGeometry x="120" y="350" width="120" height="20" as="geometry" />
        </mxCell>
        <mxCell id="ajo63VWfuF_ObfIZbQrC-22" style="edgeStyle=orthogonalEdgeStyle;rounded=0;orthogonalLoop=1;jettySize=auto;html=1;dashed=1;fillColor=#e1d5e7;strokeColor=#9673a6;" edge="1" parent="1" source="ajo63VWfuF_ObfIZbQrC-5" target="ajo63VWfuF_ObfIZbQrC-17">
          <mxGeometry relative="1" as="geometry" />
        </mxCell>
        <mxCell id="ajo63VWfuF_ObfIZbQrC-5" value="" style="rounded=0;whiteSpace=wrap;html=1;fillColor=#e1d5e7;strokeColor=#9673a6;" vertex="1" parent="1">
          <mxGeometry x="120" y="480" width="120" height="20" as="geometry" />
        </mxCell>
        <mxCell id="ajo63VWfuF_ObfIZbQrC-23" style="edgeStyle=orthogonalEdgeStyle;rounded=0;orthogonalLoop=1;jettySize=auto;html=1;entryX=0;entryY=0.25;entryDx=0;entryDy=0;dashed=1;fillColor=#e1d5e7;strokeColor=#9673a6;" edge="1" parent="1" source="ajo63VWfuF_ObfIZbQrC-6" target="ajo63VWfuF_ObfIZbQrC-15">
          <mxGeometry relative="1" as="geometry" />
        </mxCell>
        <mxCell id="ajo63VWfuF_ObfIZbQrC-6" value="" style="rounded=0;whiteSpace=wrap;html=1;fillColor=#e1d5e7;strokeColor=#9673a6;" vertex="1" parent="1">
          <mxGeometry x="120" y="510" width="120" height="20" as="geometry" />
        </mxCell>
        <mxCell id="ajo63VWfuF_ObfIZbQrC-24" style="edgeStyle=orthogonalEdgeStyle;rounded=0;orthogonalLoop=1;jettySize=auto;html=1;entryX=-0.035;entryY=0.421;entryDx=0;entryDy=0;entryPerimeter=0;dashed=1;fillColor=#e1d5e7;strokeColor=#9673a6;" edge="1" parent="1" source="ajo63VWfuF_ObfIZbQrC-7" target="ajo63VWfuF_ObfIZbQrC-16">
          <mxGeometry relative="1" as="geometry" />
        </mxCell>
        <mxCell id="ajo63VWfuF_ObfIZbQrC-7" value="" style="rounded=0;whiteSpace=wrap;html=1;fillColor=#e1d5e7;strokeColor=#9673a6;" vertex="1" parent="1">
          <mxGeometry x="120" y="565" width="120" height="20" as="geometry" />
        </mxCell>
        <mxCell id="ajo63VWfuF_ObfIZbQrC-8" value="&lt;font style=&quot;font-size: 16px&quot;&gt;Page&lt;br&gt;Table&lt;/font&gt;" style="rounded=0;whiteSpace=wrap;html=1;fillColor=#f8cecc;strokeColor=#b85450;" vertex="1" parent="1">
          <mxGeometry x="340" y="260" width="86" height="60" as="geometry" />
        </mxCell>
        <mxCell id="ajo63VWfuF_ObfIZbQrC-9" value="&lt;font style=&quot;font-size: 16px&quot;&gt;Kernel&lt;br&gt;Stack&lt;/font&gt;" style="rounded=0;whiteSpace=wrap;html=1;fillColor=#f8cecc;strokeColor=#b85450;" vertex="1" parent="1">
          <mxGeometry x="470" y="200" width="86" height="140" as="geometry" />
        </mxCell>
        <mxCell id="ajo63VWfuF_ObfIZbQrC-10" value="&lt;font style=&quot;font-size: 16px&quot;&gt;PCB&lt;/font&gt;" style="rounded=0;whiteSpace=wrap;html=1;fillColor=#f8cecc;strokeColor=#b85450;" vertex="1" parent="1">
          <mxGeometry x="600" y="330" width="86" height="60" as="geometry" />
        </mxCell>
        <mxCell id="ajo63VWfuF_ObfIZbQrC-15" value="&lt;font style=&quot;font-size: 16px&quot;&gt;Page&lt;br&gt;Table&lt;/font&gt;" style="rounded=0;whiteSpace=wrap;html=1;fillColor=#e1d5e7;strokeColor=#9673a6;" vertex="1" parent="1">
          <mxGeometry x="328" y="505" width="86" height="60" as="geometry" />
        </mxCell>
        <mxCell id="ajo63VWfuF_ObfIZbQrC-16" value="&lt;font style=&quot;font-size: 16px&quot;&gt;Kernel&lt;br&gt;Stack&lt;/font&gt;" style="rounded=0;whiteSpace=wrap;html=1;fillColor=#e1d5e7;strokeColor=#9673a6;" vertex="1" parent="1">
          <mxGeometry x="480" y="515" width="86" height="140" as="geometry" />
        </mxCell>
        <mxCell id="ajo63VWfuF_ObfIZbQrC-17" value="&lt;font style=&quot;font-size: 16px&quot;&gt;PCB&lt;/font&gt;" style="rounded=0;whiteSpace=wrap;html=1;fillColor=#e1d5e7;strokeColor=#9673a6;" vertex="1" parent="1">
          <mxGeometry x="590" y="460" width="86" height="60" as="geometry" />
        </mxCell>
        <mxCell id="2" value="&lt;font style=&quot;font-size: 16px&quot;&gt;Parent Process Information In the Kernel&lt;/font&gt;" style="text;html=1;align=center;verticalAlign=middle;resizable=0;points=[];autosize=1;" vertex="1" parent="1">
          <mxGeometry x="310" y="160" width="300" height="20" as="geometry" />
        </mxCell>
        <mxCell id="ajo63VWfuF_ObfIZbQrC-25" value="&lt;font style=&quot;font-size: 16px&quot;&gt;Child Process Information In the Kernel&lt;/font&gt;" style="text;html=1;align=center;verticalAlign=middle;resizable=0;points=[];autosize=1;" vertex="1" parent="1">
          <mxGeometry x="320" y="690" width="290" height="20" as="geometry" />
        </mxCell>
        <mxCell id="ajo63VWfuF_ObfIZbQrC-26" value="" style="endArrow=none;html=1;strokeWidth=3;" edge="1" parent="1">
          <mxGeometry width="50" height="50" relative="1" as="geometry">
            <mxPoint x="263" y="420" as="sourcePoint" />
            <mxPoint x="763" y="420" as="targetPoint" />
          </mxGeometry>
        </mxCell>
      </root>
    </mxGraphModel>
  </diagram>
</mxfile>
